<svg width="15" height="4" viewBox="0 0 15 4" fill="none" xmlns="http://www.w3.org/2000/svg">
  <path d="M0 1.66667C0 0.75 0.75 0 1.66667 0C2.58333 0 3.33333 0.75 3.33333 1.66667C3.33333 2.58333 2.58333 3.33333 1.66667 3.33333C0.75 3.33333 0 2.58333 0 1.66667ZM7.5 3.33333C8.41667 3.33333 9.16667 2.58333 9.16667 1.66667C9.16667 0.75 8.41667 0 7.5 0C6.58333 0 5.83333 0.75 5.83333 1.66667C5.83333 2.58333 6.58333 3.33333 7.5 3.33333ZM13.3333 3.33333C14.25 3.33333 15 2.58333 15 1.66667C15 0.75 14.25 0 13.3333 0C12.4167 0 11.6667 0.75 11.6667 1.66667C11.6667 2.58333 12.4167 3.33333 13.3333 3.33333Z" fill="#F7F9F9" />
</svg>