<svg width="24" height="18" viewBox="0 0 24 18" fill="none" xmlns="http://www.w3.org/2000/svg">
  <path d="M7.029 16.917L6.999 18H0L0.029 16.973C0.213 10.355 3.765 7.996 7.029 7.996C7.992 7.996 8.979 8.208 9.899 8.668C9.455 9.146 9.048 9.698 8.687 10.324C8.18 10.12 7.633 9.995 7.029 9.995C4.262 9.995 2.459 12.218 2.091 15.999H7.088C7.065 16.301 7.038 16.599 7.029 16.917ZM23.027 16.973L23.056 18H9L9.029 16.973C9.213 10.355 12.765 7.996 16.029 7.996C19.293 7.996 22.845 10.354 23.029 16.973H23.027ZM20.965 16C20.598 12.219 18.795 9.996 16.027 9.996C13.259 9.996 11.457 12.219 11.089 16H20.965ZM16.027 7C15.228 7 14.5 6.721 13.911 6.27C13.075 5.63 12.527 4.632 12.527 3.5C12.527 1.57 14.094 0 16.027 0C17.96 0 19.527 1.57 19.527 3.5C19.527 4.632 18.979 5.63 18.143 6.27C17.554 6.721 16.826 7 16.027 7ZM14.527 3.5C14.527 4.327 15.2 5 16.027 5C16.854 5 17.527 4.327 17.527 3.5C17.527 2.673 16.854 2 16.027 2C15.2 2 14.527 2.673 14.527 3.5ZM7.028 0C8.961 0 10.528 1.57 10.528 3.5C10.528 5.43 8.961 7 7.028 7C5.095 7 3.528 5.43 3.528 3.5C3.528 1.57 5.095 0 7.028 0ZM7.028 2C6.201 2 5.528 2.673 5.528 3.5C5.528 4.327 6.201 5 7.028 5C7.855 5 8.528 4.327 8.528 3.5C8.528 2.673 7.855 2 7.028 2Z" fill="#F7F9F9" />
</svg>